<svg width="231" height="70" viewBox="0 0 231 70" fill="none" xmlns="http://www.w3.org/2000/svg">
<g filter="url(#filter0_d)">
<rect x="2" y="0.571411" width="227" height="64.8571" rx="5" fill="#F3F3F3"/>
</g>
<path d="M35.1816 37.6201H41.2461V39H33.4854V26.2031H35.1816V37.6201ZM44.6826 39H43.0566V29.4902H44.6826V39ZM42.9248 26.9678C42.9248 26.7041 43.0039 26.4814 43.1621 26.2998C43.3262 26.1182 43.5664 26.0273 43.8828 26.0273C44.1992 26.0273 44.4395 26.1182 44.6035 26.2998C44.7676 26.4814 44.8496 26.7041 44.8496 26.9678C44.8496 27.2314 44.7676 27.4512 44.6035 27.627C44.4395 27.8027 44.1992 27.8906 43.8828 27.8906C43.5664 27.8906 43.3262 27.8027 43.1621 27.627C43.0039 27.4512 42.9248 27.2314 42.9248 26.9678ZM50.4307 36.7939L52.7861 29.4902H54.4473L51.0371 39H49.7979L46.3525 29.4902H48.0137L50.4307 36.7939ZM59.835 39.1758C58.5459 39.1758 57.4971 38.7539 56.6885 37.9102C55.8799 37.0605 55.4756 35.9268 55.4756 34.5088V34.21C55.4756 33.2666 55.6543 32.4258 56.0117 31.6875C56.375 30.9434 56.8789 30.3633 57.5234 29.9473C58.1738 29.5254 58.877 29.3145 59.6328 29.3145C60.8691 29.3145 61.8301 29.7217 62.5156 30.5361C63.2012 31.3506 63.5439 32.5166 63.5439 34.0342V34.7109H57.1016C57.125 35.6484 57.3975 36.4072 57.9189 36.9873C58.4463 37.5615 59.1143 37.8486 59.9229 37.8486C60.4971 37.8486 60.9834 37.7314 61.3818 37.4971C61.7803 37.2627 62.1289 36.9521 62.4277 36.5654L63.4209 37.3389C62.624 38.5635 61.4287 39.1758 59.835 39.1758ZM59.6328 30.6504C58.9766 30.6504 58.4258 30.8906 57.9805 31.3711C57.5352 31.8457 57.2598 32.5137 57.1543 33.375H61.918V33.252C61.8711 32.4258 61.6484 31.7871 61.25 31.3359C60.8516 30.8789 60.3125 30.6504 59.6328 30.6504ZM71.8408 33.9902V39H70.1533V26.2031H74.873C76.2734 26.2031 77.3691 26.5605 78.1602 27.2754C78.957 27.9902 79.3555 28.9365 79.3555 30.1143C79.3555 31.3564 78.9658 32.3145 78.1865 32.9883C77.4131 33.6562 76.3027 33.9902 74.8555 33.9902H71.8408ZM71.8408 32.6104H74.873C75.7754 32.6104 76.4668 32.3994 76.9473 31.9775C77.4277 31.5498 77.668 30.9346 77.668 30.1318C77.668 29.3701 77.4277 28.7607 76.9473 28.3037C76.4668 27.8467 75.8076 27.6094 74.9697 27.5918H71.8408V32.6104ZM85.8506 30.9492C85.6045 30.9082 85.3379 30.8877 85.0508 30.8877C83.9844 30.8877 83.2607 31.3418 82.8799 32.25V39H81.2539V29.4902H82.8359L82.8623 30.5889C83.3955 29.7393 84.1514 29.3145 85.1299 29.3145C85.4463 29.3145 85.6865 29.3555 85.8506 29.4375V30.9492ZM91.124 39.1758C89.835 39.1758 88.7861 38.7539 87.9775 37.9102C87.1689 37.0605 86.7646 35.9268 86.7646 34.5088V34.21C86.7646 33.2666 86.9434 32.4258 87.3008 31.6875C87.6641 30.9434 88.168 30.3633 88.8125 29.9473C89.4629 29.5254 90.166 29.3145 90.9219 29.3145C92.1582 29.3145 93.1191 29.7217 93.8047 30.5361C94.4902 31.3506 94.833 32.5166 94.833 34.0342V34.7109H88.3906C88.4141 35.6484 88.6865 36.4072 89.208 36.9873C89.7354 37.5615 90.4033 37.8486 91.2119 37.8486C91.7861 37.8486 92.2725 37.7314 92.6709 37.4971C93.0693 37.2627 93.418 36.9521 93.7168 36.5654L94.71 37.3389C93.9131 38.5635 92.7178 39.1758 91.124 39.1758ZM90.9219 30.6504C90.2656 30.6504 89.7148 30.8906 89.2695 31.3711C88.8242 31.8457 88.5488 32.5137 88.4434 33.375H93.207V33.252C93.1602 32.4258 92.9375 31.7871 92.5391 31.3359C92.1406 30.8789 91.6016 30.6504 90.9219 30.6504ZM99.7373 36.7939L102.093 29.4902H103.754L100.344 39H99.1045L95.6592 29.4902H97.3203L99.7373 36.7939ZM107.085 39H105.459V29.4902H107.085V39ZM105.327 26.9678C105.327 26.7041 105.406 26.4814 105.564 26.2998C105.729 26.1182 105.969 26.0273 106.285 26.0273C106.602 26.0273 106.842 26.1182 107.006 26.2998C107.17 26.4814 107.252 26.7041 107.252 26.9678C107.252 27.2314 107.17 27.4512 107.006 27.627C106.842 27.8027 106.602 27.8906 106.285 27.8906C105.969 27.8906 105.729 27.8027 105.564 27.627C105.406 27.4512 105.327 27.2314 105.327 26.9678ZM113.642 39.1758C112.353 39.1758 111.304 38.7539 110.495 37.9102C109.687 37.0605 109.282 35.9268 109.282 34.5088V34.21C109.282 33.2666 109.461 32.4258 109.818 31.6875C110.182 30.9434 110.686 30.3633 111.33 29.9473C111.98 29.5254 112.684 29.3145 113.439 29.3145C114.676 29.3145 115.637 29.7217 116.322 30.5361C117.008 31.3506 117.351 32.5166 117.351 34.0342V34.7109H110.908C110.932 35.6484 111.204 36.4072 111.726 36.9873C112.253 37.5615 112.921 37.8486 113.729 37.8486C114.304 37.8486 114.79 37.7314 115.188 37.4971C115.587 37.2627 115.936 36.9521 116.234 36.5654L117.228 37.3389C116.431 38.5635 115.235 39.1758 113.642 39.1758ZM113.439 30.6504C112.783 30.6504 112.232 30.8906 111.787 31.3711C111.342 31.8457 111.066 32.5137 110.961 33.375H115.725V33.252C115.678 32.4258 115.455 31.7871 115.057 31.3359C114.658 30.8789 114.119 30.6504 113.439 30.6504ZM127.66 36.7588L129.488 29.4902H131.114L128.346 39H127.027L124.716 31.793L122.466 39H121.147L118.388 29.4902H120.005L121.877 36.6094L124.092 29.4902H125.401L127.66 36.7588Z" fill="#24292E"/>
<path d="M164.957 33.35H197.386" stroke="#24292E" stroke-width="2" stroke-linecap="round" stroke-linejoin="round"/>
<path d="M192.521 27.6749L198.196 33.3499L192.521 39.0249" stroke="#24292E" stroke-width="2" stroke-linecap="round" stroke-linejoin="round"/>
<defs>
<filter id="filter0_d" x="0" y="0.571411" width="231" height="68.8571" filterUnits="userSpaceOnUse" color-interpolation-filters="sRGB">
<feFlood flood-opacity="0" result="BackgroundImageFix"/>
<feColorMatrix in="SourceAlpha" type="matrix" values="0 0 0 0 0 0 0 0 0 0 0 0 0 0 0 0 0 0 127 0"/>
<feOffset dy="2"/>
<feGaussianBlur stdDeviation="1"/>
<feColorMatrix type="matrix" values="0 0 0 0 0 0 0 0 0 0 0 0 0 0 0 0 0 0 0.25 0"/>
<feBlend mode="normal" in2="BackgroundImageFix" result="effect1_dropShadow"/>
<feBlend mode="normal" in="SourceGraphic" in2="effect1_dropShadow" result="shape"/>
</filter>
</defs>
</svg>
