<?xml version="1.0" encoding="UTF-8" standalone="no"?>
<svg
   xmlns:dc="http://purl.org/dc/elements/1.1/"
   xmlns:cc="http://creativecommons.org/ns#"
   xmlns:rdf="http://www.w3.org/1999/02/22-rdf-syntax-ns#"
   xmlns:svg="http://www.w3.org/2000/svg"
   xmlns="http://www.w3.org/2000/svg"
   xmlns:sodipodi="http://sodipodi.sourceforge.net/DTD/sodipodi-0.dtd"
   xmlns:inkscape="http://www.inkscape.org/namespaces/inkscape"
   version="1.1"
   id="svg2"
   xml:space="preserve"
   width="411.25201"
   height="397.836"
   viewBox="0 0 411.25201 397.836"
   sodipodi:docname="pokemon-1536847.ai"><metadata
     id="metadata8"><rdf:RDF><cc:Work
         rdf:about=""><dc:format>image/svg+xml</dc:format><dc:type
           rdf:resource="http://purl.org/dc/dcmitype/StillImage" /></cc:Work></rdf:RDF></metadata><defs
     id="defs6"><clipPath
       clipPathUnits="userSpaceOnUse"
       id="clipPath18"><path
         d="M 0,298.377 H 308.439 V 0 H 0 Z"
         id="path16" /></clipPath></defs><sodipodi:namedview
     pagecolor="#fac706"
     bordercolor="#666666"
     borderopacity="1"
     objecttolerance="10"
     gridtolerance="10"
     guidetolerance="10"
     inkscape:pageopacity="0"
     inkscape:pageshadow="2"
     inkscape:window-width="640"
     inkscape:window-height="480"
     id="namedview4" /><g
     id="g10"
     inkscape:groupmode="layer"
     inkscape:label="pokemon-1536847"
     transform="matrix(1.3333333,0,0,-1.3333333,0,397.836)"><g
       id="g12"><g
         id="g14"
         clip-path="url(#clipPath18)"><g
           id="g20"
           transform="translate(34.3098,149.1887)"><path
             d="M 0,0 C 0,66.224 53.685,119.91 119.91,119.91 186.134,119.91 239.819,66.224 239.819,0"
             style="fill:#fac706;fill-opacity:1;fill-rule:nonzero;stroke:#1d1d1b;stroke-width:10;stroke-linecap:butt;stroke-linejoin:miter;stroke-miterlimit:10;stroke-dasharray:none;stroke-opacity:1"
             id="path22" /></g><g
           id="g24"
           transform="translate(274.129,149.1887)"><path
             d="m 0,0 c 0,-66.224 -53.685,-119.91 -119.91,-119.91 -66.224,0 -119.909,53.686 -119.909,119.91 z"
             style="fill:#fac706;fill-opacity:1;fill-rule:nonzero;stroke:none"
             id="path26" /></g><g
           id="g28"
           transform="translate(274.129,149.1887)"><path
             d="m 0,0 c 0,-66.224 -53.685,-119.91 -119.91,-119.91 -66.224,0 -119.909,53.686 -119.909,119.91 z"
             style="fill:none;stroke:#1d1d1b;stroke-width:10;stroke-linecap:butt;stroke-linejoin:miter;stroke-miterlimit:10;stroke-dasharray:none;stroke-opacity:1"
             id="path30" /></g><g
           id="g32"
           transform="translate(192.6856,149.1887)"><path
             d="m 0,0 c 0,-21.244 -17.222,-38.466 -38.466,-38.466 -21.245,0 -38.466,17.222 -38.466,38.466 0,21.244 17.221,38.466 38.466,38.466 C -17.222,38.466 0,21.244 0,0"
             style="fill:#fac706;fill-opacity:1;fill-rule:nonzero;stroke:none"
             id="path34" /></g><g
           id="g36"
           transform="translate(192.6856,149.1887)"><path
             d="m 0,0 c 0,-21.244 -17.222,-38.466 -38.466,-38.466 -21.245,0 -38.466,17.222 -38.466,38.466 0,21.244 17.221,38.466 38.466,38.466 C -17.222,38.466 0,21.244 0,0 Z"
             style="fill:none;stroke:#1d1d1b;stroke-width:10;stroke-linecap:butt;stroke-linejoin:miter;stroke-miterlimit:10;stroke-dasharray:none;stroke-opacity:1"
             id="path38" /></g><g
           id="g40"
           transform="translate(173.4525,149.1887)"><path
             d="m 0,0 c 0,-10.622 -8.611,-19.233 -19.233,-19.233 -10.622,0 -19.233,8.611 -19.233,19.233 0,10.622 8.611,19.233 19.233,19.233 C -8.611,19.233 0,10.622 0,0"
             style="fill:#fac706;fill-opacity:1;fill-rule:nonzero;stroke:none"
             id="path42" /></g><g
           id="g44"
           transform="translate(173.4525,149.1887)"><path
             d="m 0,0 c 0,-10.622 -8.611,-19.233 -19.233,-19.233 -10.622,0 -19.233,8.611 -19.233,19.233 0,10.622 8.611,19.233 19.233,19.233 C -8.611,19.233 0,10.622 0,0 Z"
             style="fill:none;stroke:#1d1d1b;stroke-width:6;stroke-linecap:butt;stroke-linejoin:miter;stroke-miterlimit:10;stroke-dasharray:none;stroke-opacity:1"
             id="path46" /></g></g></g></g></svg>
